<?xml version="1.0" standalone="no"?>
<!DOCTYPE svg PUBLIC "-//W3C//DTD SVG 20010904//EN"
 "http://www.w3.org/TR/2001/REC-SVG-20010904/DTD/svg10.dtd">
<svg version="1.0" xmlns="http://www.w3.org/2000/svg"
 width="261.000000pt" height="261.000000pt" viewBox="0 0 261.000000 261.000000"
 preserveAspectRatio="xMidYMid meet">
<metadata>
Created by potrace 1.11, written by Peter Selinger 2001-2013
</metadata>
<g transform="translate(0.000000,261.000000) scale(0.100000,-0.100000)"
fill="#000000" stroke="none">
<path d="M630 2546 c-269 -202 -475 -510 -559 -836 -103 -403 -48 -834 151
-1182 98 -174 291 -388 435 -486 69 -47 78 -50 68 -25 -136 332 -203 608 -192
797 6 116 32 188 89 243 55 54 105 74 198 80 140 9 270 -37 352 -125 70 -75
118 -186 118 -274 0 -24 4 -37 10 -33 5 3 10 21 10 38 1 127 98 284 212 343
111 57 284 69 379 27 59 -27 122 -97 145 -164 28 -81 26 -280 -4 -419 -28
-122 -89 -319 -139 -439 -18 -46 -32 -86 -29 -88 10 -10 142 92 230 176 244
237 390 509 453 846 27 142 24 437 -5 583 -63 314 -198 567 -422 793 -104 105
-244 218 -255 207 -3 -3 16 -60 41 -128 57 -155 107 -336 129 -469 21 -125 16
-291 -10 -365 -26 -72 -96 -140 -164 -160 -148 -43 -344 6 -443 112 -70 74
-118 184 -118 269 0 17 -4 35 -10 38 -6 4 -10 -10 -10 -34 0 -50 -30 -147 -63
-204 -56 -94 -161 -164 -282 -186 -201 -37 -336 27 -384 183 -54 176 -1 503
140 864 16 40 29 75 29 77 0 13 -22 0 -100 -59z"/>
</g>
</svg>
